<svg width="13" height="14" viewBox="0 0 13 14" fill="none" xmlns="http://www.w3.org/2000/svg">
<path fill-rule="evenodd" clip-rule="evenodd" d="M7.22222 1.22222C7.22222 0.82335 6.89887 0.5 6.5 0.5C6.10113 0.5 5.77778 0.82335 5.77778 1.22222V6.27784H0.722222C0.32335 6.27784 0 6.60119 0 7.00006C0 7.39894 0.32335 7.72229 0.722222 7.72229H5.77778V12.7778C5.77778 13.1766 6.10113 13.5 6.5 13.5C6.89887 13.5 7.22222 13.1766 7.22222 12.7778V7.72229H12.2778C12.6766 7.72229 13 7.39894 13 7.00006C13 6.60119 12.6766 6.27784 12.2778 6.27784H7.22222V1.22222Z" fill="#8C939F"/>
</svg>
